{"title":"BBC Proms 2012 - 46. Vaughan Williams Night","uid":7586307,"size":1593907686,"categoryP":"video","categoryS":"music_videos","magnet":"?xt=urn:btih:88349dbfabc46bbd7b9c35d806dfad7432002899&amp;dn=BBC+Proms+2012+-+46.+Vaughan+Williams+Night&amp;tr=udp%3A%2F%2Ftracker.openbittorrent.com%3A80&amp;tr=udp%3A%2F%2Fopen.demonii.com%3A1337&amp;tr=udp%3A%2F%2Ftracker.coppersurfer.tk%3A6969&amp;tr=udp%3A%2F%2Fexodus.desync.com%3A6969","seeders":0,"leechers":0,"uploader":"deandominic","files":2,"time":1346411973,"description":"BBC Proms 2012 - 46. Vaughan Williams Night\n\nVaughan Williams - Symphony No. 4 in F minor (30 mins)\nVaughan Williams - Symphony No. 5 in D major (39 mins)\nVaughan Williams - Symphony No. 6 in E minor (31 mins)\n\nBBC Scottish Symphony Orchestra\nAndrew Manze conductor\n\nOver the next few seasons Andrew Manze directs all nine Vaughan Williams symphonies with the BBC Scottish Symphony Orchestra, of which he is Associate Guest Conductor: `Vaughan Williams is one of those composers some people have fixed ideas about . I'm on a bit of a mission to rehabilitate him in people's minds as an important figure in the musicmaking of this country.'\n\nTonight he tackles three differently powerful works of the 1930s and 1940s, which, whatever their own emotional back stories, may still be seen as chronicling our national life in troubled times.\n\nVideo\nID                                       : 1\nFormat                                   : AVC\nFormat/Info                              : Advanced Video Codec\nFormat profile                           : &lt;a class=&quot;__cf_email__&quot; href=&quot;/cdn-cgi/l/email-protection&quot; data-cfemail=&quot;a3eec2cacde3ef908d93&quot;&gt;[email&amp;#160;protected]&lt;/a&gt;&lt;script data-cfhash='f9e31' type=&quot;text/javascript&quot;&gt;\n/* &lt;![CDATA[ */!function(){try{var t=&quot;currentScript&quot;in document?document.currentScript:function(){for(var t=document.getElementsByTagName(&quot;script&quot;),e=t.length;e--;)if(t[e].getAttribute(&quot;data-cfhash&quot;))return t[e]}();if(t&amp;&amp;t.previousSibling){var e,r,n,i,c=t.previousSibling,a=c.getAttribute(&quot;data-cfemail&quot;);if(a){for(e=&quot;&quot;,r=parseInt(a.substr(0,2),16),n=2;a.length-n;n+=2)i=parseInt(a.substr(n,2),16)^r,e+=String.fromCharCode(i);e=document.createTextNode(e),c.parentNode.replaceChild(e,c)}t.parentNode.removeChild(t);}}catch(u){}}()/* ]]&gt; */&lt;/script&gt;\nFormat settings, CABAC                   : Yes\nFormat settings, ReFrames                : 4 frames\nCodec ID                                 : avc1\nCodec ID/Info                            : Advanced Video Coding\nDuration                                 : 2h 21mn\nBit rate mode                            : Constant\nBit rate                                 : 1 404 Kbps\nWidth                                    : 832 pixels\nHeight                                   : 468 pixels\nDisplay aspect ratio                     : 16:9\nFrame rate mode                          : Constant\nFrame rate                               : 25.000 fps\nStandard                                 : PAL\nColor space                              : YUV\nChroma subsampling                       : 4:2:0\nBit depth                                : 8 bits\nScan type                                : Progressive\nBits/(Pixel*Frame)                       : 0.144\nStream size                              : 1.39 GiB (93%)\n\nAudio\nID                                       : 2\nFormat                                   : AAC\nFormat/Info                              : Advanced Audio Codec\nFormat profile                           : HE-AAC / LC\nCodec ID                                 : 40\nDuration                                 : 2h 21mn\nBit rate mode                            : Constant\nBit rate                                 : 96.0 Kbps\nChannel(s)                               : 2 channels\nChannel positions                        : Front: L R\nSampling rate                            : 48.0 KHz / 24.0 KHz\nCompression mode                         : Lossy\nStream size                              : 95.8 MiB (6%)\n","torrent":{"xt":"urn:btih:88349dbfabc46bbd7b9c35d806dfad7432002899","amp;dn":"BBC+Proms+2012+-+46.+Vaughan+Williams+Night","amp;tr":["udp%3A%2F%2Ftracker.openbittorrent.com%3A80","udp%3A%2F%2Fopen.demonii.com%3A1337","udp%3A%2F%2Ftracker.coppersurfer.tk%3A6969","udp%3A%2F%2Fexodus.desync.com%3A6969"],"infoHash":"88349dbfabc46bbd7b9c35d806dfad7432002899","infoHashBuffer":{"type":"Buffer","data":[136,52,157,191,171,196,107,189,123,156,53,216,6,223,173,116,50,0,40,153]},"announce":[],"urlList":[]}}